
Shrek.Forever.After.2010 [Eng_Ita] BRRip.H264 MarGelaTu.mp4
-------------------------------------------------------------------------------------
 - http://www.imdb.com/title/tt0892791/

      Source:Shrek e Vissero Felici e Contenti. BluRay Rip 1080p (2010) LiFE [m@rcoHD]  8.88Gb    ( grazzie)
      Format : MPEG-4
      Format profile : Base Media / Version 2
      Codec ID : mp42
      File size : 2.13 GiB
      Duration : 1h 33mn
      Overall bit rate : 3 271 Kbps
      
   Video #1
      ID : 1
      Format : AVC
      Format/Info : Advanced Video Codec
      Format profile : High@L4.0
      Format settings, CABAC : Yes
      Format settings, ReFrames : 8 frames
      Codec ID : avc1
      Codec ID/Info : Advanced Video Coding
      Duration : 1h 33mn
      Bit rate mode : Variable
      Bit rate : 2 880 Kbps
      Width : 1 280 pixels
      Height : 544 pixels
      Display aspect ratio : 2.35:1
      Frame rate mode : Variable
      Frame rate : 23.976 fps
      Minimum frame rate : 23.974 fps
      Maximum frame rate : 23.981 fps
      Resolution : 24 bits
      Colorimetry : 4:2:0
      Scan type : Progressive
      Bits/(Pixel*Frame) : 0.173
      Stream size : 1.87 GiB (88%)
      Writing library : x264 core 79
      Encoding settings : cabac=1 / ref=8 / deblock=1:-2:-2 / analyse=0x3:0x113 / me=umh / subme=9 / psy=1 / psy_rd=0.0:2.0 / mixed_ref=1 / me_range=24 / chroma_me=1 / trellis=2 / 8x8dct=1 / cqm=0 / deadzone=21,11 / chroma_qp_offset=-2 / threads=6 / nr=0 / decimate=1 / mbaff=0 / constrained_intra=0 / bframes=7 / b_pyramid=0 / b_adapt=2 / b_bias=0 / direct=3 / wpredb=1 / wpredp=2 / keyint=240 / keyint_min=24 / scenecut=40 / rc_lookahead=50 / rc=crf / mbtree=1 / crf=18.3 / qcomp=0.60 / qpmin=10 / qpmax=51 / qpstep=4 / ip_ratio=1.40 / aq=1:1.00
     
   Audio #2
      ID : 2
      Format : AAC
      Format/Info : Advanced Audio Codec
      Format version : Version 4
      Format profile : LC
      Format settings, SBR : No
      Codec ID : 40
      Duration : 1h 33mn
      Bit rate mode : Variable
      Bit rate : 192 Kbps
      Maximum bit rate : 258 Kbps
      Channel(s) : 6 channels
      Channel positions : Front: L C R, Rear: L R, LFE
      Sampling rate : 48.0 KHz
      Resolution : 16 bits
      Stream size : 128 MiB (6%)
      Language : Italian
     
   Audio #3
      ID : 3
      Format : AAC
      Format/Info : Advanced Audio Codec
      Format version : Version 4
      Format profile : LC
      Format settings, SBR : No
      Codec ID : 40
      Duration : 1h 33mn
      Bit rate mode : Variable
      Bit rate : 192 Kbps
      Maximum bit rate : 259 Kbps
      Channel(s) : 6 channels
      Channel positions : Front: L C R, Rear: L R, LFE
      Sampling rate : 48.0 KHz
      Resolution : 16 bits
      Stream size : 128 MiB (6%)
      Language : English
      -------------------------------------
           Enjoy and send, send send ...